<svg aria-hidden="true" style="position: absolute; width: 0; height: 0; overflow: hidden;" version="1.1" xmlns="http://www.w3.org/2000/svg" xmlns:xlink="http://www.w3.org/1999/xlink">
<defs>
<symbol id="icon-q1" viewBox="0 0 32 32">
<path d="M17.953 19.741c0 1.284 1.045 2.329 2.329 2.329s2.329-1.045 2.329-2.329-1.045-2.329-2.329-2.329-2.329 1.045-2.329 2.329zM20.282 18.417c0.73 0 1.324 0.594 1.324 1.324s-0.594 1.324-1.324 1.324-1.324-0.594-1.324-1.324 0.594-1.324 1.324-1.324z"></path>
<path d="M11.682 22.070c1.284 0 2.329-1.045 2.329-2.329s-1.045-2.329-2.329-2.329c-1.284 0-2.329 1.045-2.329 2.329s1.045 2.329 2.329 2.329zM11.682 18.417c0.73 0 1.324 0.594 1.324 1.324s-0.594 1.324-1.324 1.324c-0.73 0-1.324-0.594-1.324-1.324s0.594-1.324 1.324-1.324z"></path>
<path d="M23.021 12.732c0.71 0 1.288-0.578 1.288-1.288s-0.578-1.288-1.288-1.288c-0.71 0-1.288 0.578-1.288 1.288s0.578 1.288 1.288 1.288zM23.021 11.162c0.156 0 0.282 0.127 0.282 0.282s-0.127 0.282-0.282 0.282c-0.156 0-0.282-0.127-0.282-0.282s0.127-0.282 0.282-0.282z"></path>
<path d="M24.309 15.743c0-0.71-0.578-1.288-1.288-1.288s-1.288 0.578-1.288 1.288c0 0.71 0.578 1.288 1.288 1.288s1.288-0.578 1.288-1.288zM22.739 15.743c0-0.156 0.127-0.282 0.282-0.282s0.282 0.127 0.282 0.282-0.127 0.282-0.282 0.282-0.282-0.127-0.282-0.282z"></path>
<path d="M19.584 13.594c0 0.71 0.578 1.288 1.288 1.288s1.288-0.578 1.288-1.288c0-0.71-0.578-1.288-1.288-1.288s-1.288 0.578-1.288 1.288zM21.154 13.594c0 0.156-0.127 0.282-0.282 0.282s-0.282-0.127-0.282-0.282c0-0.156 0.127-0.282 0.282-0.282s0.282 0.127 0.282 0.282z"></path>
<path d="M26.459 13.594c0-0.71-0.578-1.288-1.288-1.288s-1.288 0.578-1.288 1.288c0 0.71 0.578 1.288 1.288 1.288s1.288-0.578 1.288-1.288zM24.888 13.594c0-0.156 0.127-0.282 0.282-0.282s0.282 0.127 0.282 0.282-0.127 0.282-0.282 0.282c-0.156 0-0.282-0.127-0.282-0.282z"></path>
<path d="M8.535 16.342h1.019c0.361 0 0.655-0.294 0.655-0.655v-0.929h0.929c0.361 0 0.655-0.294 0.655-0.655v-1.019c0-0.361-0.294-0.655-0.655-0.655h-0.929v-0.929c0-0.361-0.294-0.655-0.655-0.655h-1.019c-0.361 0-0.655 0.294-0.655 0.655v0.929h-0.929c-0.361 0-0.655 0.294-0.655 0.655v1.019c0 0.361 0.294 0.655 0.655 0.655h0.929v0.929c-0 0.361 0.294 0.655 0.655 0.655zM7.301 13.753v-0.318h1.081c0.278 0 0.503-0.225 0.503-0.503v-1.081h0.318v1.081c0 0.278 0.225 0.503 0.503 0.503h1.081v0.318h-1.081c-0.278 0-0.503 0.225-0.503 0.503v1.081h-0.318v-1.081c0-0.278-0.225-0.503-0.503-0.503h-1.081z"></path>
<path d="M31.969 21.033c-0.162-2.042-0.945-4.469-2.205-6.835-0.13-0.245-0.435-0.338-0.68-0.207s-0.338 0.435-0.207 0.68c2.366 4.441 2.818 8.91 1.008 9.962-1.352 0.786-3.838-0.484-6.187-3.158-0.095-0.109-0.233-0.171-0.378-0.171h-0.154c-0.157 0-0.305 0.073-0.4 0.199-0.596 0.784-1.501 1.234-2.483 1.234s-1.888-0.45-2.483-1.234c-0.095-0.125-0.243-0.199-0.4-0.199h-2.762c-0.157 0-0.305 0.074-0.4 0.199-0.596 0.784-1.501 1.234-2.483 1.234s-1.888-0.45-2.483-1.234c-0.095-0.125-0.243-0.199-0.4-0.199h-0.189c-0.145 0-0.282 0.062-0.378 0.171-2.349 2.675-4.835 3.944-6.187 3.158-1.733-1.007-1.572-5.555 1.43-10.719 0.934-1.606 2.040-3.066 3.199-4.222 0.095-0.094 0.148-0.222 0.148-0.356v-1.33c0-0.48 0.39-0.87 0.87-0.87h2.063c1.044 0 1.146 0.597 1.153 0.783v0.997c0 0.278 0.225 0.503 0.503 0.503h2.475v1.011c0 0.278 0.225 0.503 0.503 0.503h3.083c0.278 0 0.503-0.225 0.503-0.503v-1.011h2.475c0.278 0 0.503-0.225 0.503-0.503v-1.003c0-0.003 0.012-0.277 0.222-0.487 0.192-0.193 0.505-0.29 0.931-0.29h2.063c0.48 0 0.87 0.39 0.87 0.87v1.33c0 0.133 0.053 0.262 0.148 0.356 1.017 1.014 2.005 2.279 2.859 3.656 0.146 0.236 0.456 0.309 0.692 0.163s0.309-0.456 0.163-0.692c-0.853-1.377-1.837-2.648-2.856-3.689v-1.123c0-1.034-0.841-1.876-1.876-1.876h-2.063c-0.702 0-1.255 0.197-1.643 0.586-0.503 0.504-0.515 1.13-0.515 1.198v0.498h-8.034v-0.497c0-0.070-0.013-0.695-0.515-1.2-0.388-0.389-0.94-0.586-1.643-0.586h-2.063c-1.034 0-1.876 0.841-1.876 1.876v1.123c-1.166 1.192-2.273 2.667-3.21 4.28-1.442 2.481-2.371 5.072-2.614 7.295-0.259 2.364 0.291 4.068 1.548 4.799 0.426 0.248 0.907 0.368 1.429 0.368 1.647-0 3.703-1.202 5.729-3.409 0.776 0.819 1.841 1.28 2.986 1.28 1.214 0 2.339-0.519 3.123-1.432h2.282c0.785 0.913 1.909 1.432 3.123 1.432 1.136 0 2.194-0.454 2.968-1.261 2.020 2.195 4.069 3.39 5.711 3.39 0.522-0 1.003-0.121 1.429-0.368 1.192-0.692 1.752-2.28 1.579-4.468zM14.961 9.418h2.078v0.509h-2.078v-0.509z"></path>
<path d="M15.263 19.238c-0.278 0-0.503 0.225-0.503 0.503s0.225 0.503 0.503 0.503h1.475c0.278 0 0.503-0.225 0.503-0.503s-0.225-0.503-0.503-0.503h-1.475z"></path>
</symbol>
<symbol id="icon-q2" viewBox="0 0 32 32">
<path d="M31.6 1l-0.2-0.4-0.4-0.2c-0.2 0-5-1.6-8.4 1.8l-13.4 13.2c-1.8-1.2-3.4-2.4-3.6-2l-0.8 0.6c-0.4 0.4 1.8 3.4 3.6 5.4l-5 6.8c-0.6-0.6-1.6-0.6-2.2 0l-0.6 0.6c-0.6 0.6-0.6 1.6 0 2.2l2 2c0.6 0.6 1.6 0.6 2.2 0l0.6-0.6c0.6-0.6 0.6-1.6 0-2.2v0l7-5c2 1.8 5 4 5.4 3.6l0.8-0.8c0.2-0.2-0.8-2-2.2-3.6l13.4-13.4c3.4-3 1.8-7.8 1.8-8zM15.4 21l-1.6-1.6 12.4-13.8-13.8 12.4-1.4-1.4 13-13c2-2 4.6-1.6 5.8-1.4 0.2 1.2 0.6 3.8-1.4 5.6l-13 13.2z"></path>
</symbol>
<symbol id="icon-q3" viewBox="0 0 32 32">
<path d="M0 2v20h32v-20h-32zM30 20h-28v-16h28v16zM21 24h-10l-1 4-2 2h16l-2-2z"></path>
</symbol>
<symbol id="icon-q4" viewBox="0 0 32 32">
<path d="M23 0h-14c-1.65 0-3 1.35-3 3v26c0 1.65 1.35 3 3 3h14c1.65 0 3-1.35 3-3v-26c0-1.65-1.35-3-3-3zM12 1.5h8v1h-8v-1zM16 30c-1.105 0-2-0.895-2-2s0.895-2 2-2 2 0.895 2 2-0.895 2-2 2zM24 24h-16v-20h16v20z"></path>
</symbol>
<symbol id="icon-q5" viewBox="0 0 32 32">
<path d="M11.366 22.564l1.291-1.807-1.414-1.414-1.807 1.291c-0.335-0.187-0.694-0.337-1.071-0.444l-0.365-2.19h-2l-0.365 2.19c-0.377 0.107-0.736 0.256-1.071 0.444l-1.807-1.291-1.414 1.414 1.291 1.807c-0.187 0.335-0.337 0.694-0.443 1.071l-2.19 0.365v2l2.19 0.365c0.107 0.377 0.256 0.736 0.444 1.071l-1.291 1.807 1.414 1.414 1.807-1.291c0.335 0.187 0.694 0.337 1.071 0.444l0.365 2.19h2l0.365-2.19c0.377-0.107 0.736-0.256 1.071-0.444l1.807 1.291 1.414-1.414-1.291-1.807c0.187-0.335 0.337-0.694 0.444-1.071l2.19-0.365v-2l-2.19-0.365c-0.107-0.377-0.256-0.736-0.444-1.071zM7 27c-1.105 0-2-0.895-2-2s0.895-2 2-2 2 0.895 2 2-0.895 2-2 2zM32 12v-2l-2.106-0.383c-0.039-0.251-0.088-0.499-0.148-0.743l1.799-1.159-0.765-1.848-2.092 0.452c-0.132-0.216-0.273-0.426-0.422-0.629l1.219-1.761-1.414-1.414-1.761 1.219c-0.203-0.149-0.413-0.29-0.629-0.422l0.452-2.092-1.848-0.765-1.159 1.799c-0.244-0.059-0.492-0.109-0.743-0.148l-0.383-2.106h-2l-0.383 2.106c-0.251 0.039-0.499 0.088-0.743 0.148l-1.159-1.799-1.848 0.765 0.452 2.092c-0.216 0.132-0.426 0.273-0.629 0.422l-1.761-1.219-1.414 1.414 1.219 1.761c-0.149 0.203-0.29 0.413-0.422 0.629l-2.092-0.452-0.765 1.848 1.799 1.159c-0.059 0.244-0.109 0.492-0.148 0.743l-2.106 0.383v2l2.106 0.383c0.039 0.251 0.088 0.499 0.148 0.743l-1.799 1.159 0.765 1.848 2.092-0.452c0.132 0.216 0.273 0.426 0.422 0.629l-1.219 1.761 1.414 1.414 1.761-1.219c0.203 0.149 0.413 0.29 0.629 0.422l-0.452 2.092 1.848 0.765 1.159-1.799c0.244 0.059 0.492 0.109 0.743 0.148l0.383 2.106h2l0.383-2.106c0.251-0.039 0.499-0.088 0.743-0.148l1.159 1.799 1.848-0.765-0.452-2.092c0.216-0.132 0.426-0.273 0.629-0.422l1.761 1.219 1.414-1.414-1.219-1.761c0.149-0.203 0.29-0.413 0.422-0.629l2.092 0.452 0.765-1.848-1.799-1.159c0.059-0.244 0.109-0.492 0.148-0.743l2.106-0.383zM21 15.35c-2.402 0-4.35-1.948-4.35-4.35s1.948-4.35 4.35-4.35 4.35 1.948 4.35 4.35c0 2.402-1.948 4.35-4.35 4.35z"></path>
</symbol>
<symbol id="icon-q6" viewBox="0 0 32 32">
<path d="M22 2l-10 10h-6l-6 8c0 0 6.357-1.77 10.065-0.94l-10.065 12.94 13.184-10.255c1.839 4.208-1.184 10.255-1.184 10.255l8-6v-6l10-10 2-10-10 2z"></path>
</symbol>
<symbol id="icon-q7" viewBox="0 0 32 32">
<path d="M15 2c-8.284 0-15 6.716-15 15s6.716 15 15 15c8.284 0 15-6.716 15-15s-6.716-15-15-15zM23.487 22c0.268-1.264 0.437-2.606 0.492-4h3.983c-0.104 1.381-0.426 2.722-0.959 4h-3.516zM6.513 12c-0.268 1.264-0.437 2.606-0.492 4h-3.983c0.104-1.381 0.426-2.722 0.959-4h3.516zM21.439 12c0.3 1.28 0.481 2.62 0.54 4h-5.979v-4h5.439zM16 10v-5.854c0.456 0.133 0.908 0.355 1.351 0.668 0.831 0.586 1.625 1.488 2.298 2.609 0.465 0.775 0.867 1.638 1.203 2.578h-4.852zM10.351 7.422c0.673-1.121 1.467-2.023 2.298-2.609 0.443-0.313 0.895-0.535 1.351-0.668v5.854h-4.852c0.336-0.94 0.738-1.803 1.203-2.578zM14 12v4h-5.979c0.059-1.38 0.24-2.72 0.54-4h5.439zM2.997 22c-0.533-1.278-0.854-2.619-0.959-4h3.983c0.055 1.394 0.224 2.736 0.492 4h-3.516zM8.021 18h5.979v4h-5.439c-0.3-1.28-0.481-2.62-0.54-4zM14 24v5.854c-0.456-0.133-0.908-0.355-1.351-0.668-0.831-0.586-1.625-1.488-2.298-2.609-0.465-0.775-0.867-1.638-1.203-2.578h4.852zM19.649 26.578c-0.673 1.121-1.467 2.023-2.298 2.609-0.443 0.312-0.895 0.535-1.351 0.668v-5.854h4.852c-0.336 0.94-0.738 1.802-1.203 2.578zM16 22v-4h5.979c-0.059 1.38-0.24 2.72-0.54 4h-5.439zM23.98 16c-0.055-1.394-0.224-2.736-0.492-4h3.516c0.533 1.278 0.855 2.619 0.959 4h-3.983zM25.958 10h-2.997c-0.582-1.836-1.387-3.447-2.354-4.732 1.329 0.636 2.533 1.488 3.585 2.54 0.671 0.671 1.261 1.404 1.766 2.192zM5.808 7.808c1.052-1.052 2.256-1.904 3.585-2.54-0.967 1.285-1.771 2.896-2.354 4.732h-2.997c0.504-0.788 1.094-1.521 1.766-2.192zM4.042 24h2.997c0.583 1.836 1.387 3.447 2.354 4.732-1.329-0.636-2.533-1.488-3.585-2.54-0.671-0.671-1.261-1.404-1.766-2.192zM24.192 26.192c-1.052 1.052-2.256 1.904-3.585 2.54 0.967-1.285 1.771-2.896 2.354-4.732h2.997c-0.504 0.788-1.094 1.521-1.766 2.192z"></path>
</symbol>
<symbol id="icon-q8" viewBox="0 0 32 32">
<path d="M23.6 2c-3.363 0-6.258 2.736-7.599 5.594-1.342-2.858-4.237-5.594-7.601-5.594-4.637 0-8.4 3.764-8.4 8.401 0 9.433 9.516 11.906 16.001 21.232 6.13-9.268 15.999-12.1 15.999-21.232 0-4.637-3.763-8.401-8.4-8.401z"></path>
</symbol>
<symbol id="icon-q9" viewBox="0 0 40 32">
<path d="M26 23l3 3 10-10-10-10-3 3 7 7z"></path>
<path d="M14 9l-3-3-10 10 10 10 3-3-7-7z"></path>
<path d="M21.916 4.704l2.171 0.592-6 22.001-2.171-0.592 6-22.001z"></path>
</symbol>
<symbol id="icon-q10" viewBox="0 0 32 32">
<path d="M0 2v28h32v-28h-32zM30 28h-28v-24h28v24zM28 6h-24v20h24v-20zM14 16h-2v2h-2v2h-2v-2h2v-2h2v-2h-2v-2h-2v-2h2v2h2v2h2v2zM22 20h-6v-2h6v2z"></path>
</symbol>
</defs>
</svg>
