<svg 
  id="uuid-7a1aadf3-7182-4ed1-b083-6de6bc20558e" 
  xmlns="http://www.w3.org/2000/svg" 
  viewBox="0 0 519.42 63.32" 
  preserveAspectRatio="none"
  style="width: 100%; height: 150px; display: block;"
>
  <g id="uuid-d069a5f5-4cb7-47d2-bfcb-206bff8439cd">
    <path d="M519.42,0v52.32c-1.13-.35-2.23-.75-3.33-1.16-1.7-1.05-3.39-1.4-5.12-1.87-1.73-.81-3.53-1.44-5.35-1.44-1.81-1.27-3.64-1.05-5.44-.26-3.14.41-6.32.03-9.52.73-3.2-.26-6.41.75-9.62.56-3.2.02-6.39,1.84-9.54,1.11-3.12,1.34-6.23.87-9.35,1.08-3.12.21-6.24.3-9.37.33-3.13-.28-6.27-1.39-9.43-.03-2.84-1.06-5.7,1.54-8.57.84-2.86.09-5.73,1.29-8.58,1.82-2.85-.19-5.7,2.63-8.51,1.63-2.44,1.24-4.99,1.29-7.51.68-2.53-.42-5.03.35-7.39,1.38-1.65,1.9-3.29,1.77-4.95.81-1.67.05-3.35-.04-5.09-.04-3.09-1.39-6.22-.33-9.34.14-3.13.66-6.25-1.31-9.33-.27-2.12-.52-4.21-.77-6.29-1.11-2.09.16-4.17-.5-6.28-1.15-1.38.66-2.75-.77-4.13-.42-1.37-.73-2.75-1.13-4.14-.45-1.46.24-2.95.68-4.45-.61-1.49-.43-3-.88-4.48-.12-1.68-.02-3.28-.87-4.88.5-1.6,1.28-3.21.99-4.92.27-2.04.03-4.05.35-6.05.74-2,.15-3.99.29-5.99,1.14-1.74.37-4.82,1.65-6.64.61-.39-.7-1.04-.87-1.2-.67-1.47.33-2.47-.82-3.83-.95-1.09.59-1.52-.24-2.82-1.64-1.09-.91-2.43-.15-3.77-.16-1.34-.62-2.68-.64-3.78.2-2.49,0-4.92-.96-7.33.01-2.41-.47-4.79-.37-7.2.68-2.79,1.68-5.59.24-8.39,1.3-2.8-.17-5.61-.25-8.43,1-3.61,1.48-7.32,1.74-11.05.51-3.73.98-7.5-.76-11.22-.58-3.72-.73-7.4-.38-10.98-1.14-2.4.88-4.79.52-7.2-.81-2.4-.34-4.81-1.14-7.23-.2-2.21-.25-3.26,1.04-5.47,1.6-3.06,1.77-6.1-.54-9.16-.56-3.05.53-6.1-1.66-9.19-.25-1.18,1.43-1.99,1.64-3.14.85-1.24.4-2.64-.5-4.05.16-1.41-.09-2.83.39-4.12-.23-2.99,1.03-6.16.87-9.33,1.33-3.17.57-6.35,1.13-9.33.13-1.34-.24-2.6-1.75-3.85-1.57-1.26.73-2.51-2.44-3.83-1.48-1.32-1.25-2.8-.26-4.28-.18-1.48.08-2.97-.19-4.34.22-1.44-1.06-3.03-1.25-4.61-.17-1.58.62-3.15.02-4.57.31-1.28,1.68-2.58,1.59-3.89,1.09-1.31,1.1-2.62.97-3.92,1.16-1.45.74-2.9-.22-4.35.75-1.45,1.23-2.91-.73-4.37.6-1.71.37-3.41.82-5.07,1.13-1.65.44-3.27,2.34-4.81,1.86-1.75,2.2-3.28.79-4.84,1.07-1.57-.48-3.18-1.24-5.1-.61-1.9-1.01-3.3.94-4.9-.67-1.27,1.89-2.08-1.07-3.17-1.76-1.15.46-2.05-3.01-3.15-3.23-1.35-.31-2.75-1.66-4.52-.74-1.27.27-2.81-1.24-4.34.24-1.53-.75-3.04-.57-4.26-.31-1.23.66-1.64-2.08-2.99-.74-2.46-.12-4.6.09-7.13.81-1.25-1.39-2.69-.93-4.13-.22-1.44.08-2.87-.59-4.1.16-1.23-1.41-2.4.76-3.56,1.63-1.16.61-2.32,1.08-3.54,1.64-3.19.2-6.39-1.4-9.57-.72-3.19-2.03-6.35-1.35-9.47-1.7-2.11-.71-4.44-1.22-6.77.3-2.32-.59-4.63.33-6.69-.26-1.37-1.93-2.75.68-4.14-.88-1.39-.75-2.78-2.37-4.18-.77-.86-1.94-2.31,1.08-3.17-.01-1.66-2.1-1.53,1.41-2.43,1.98-.93,1.02-1.86,4.01-3.4,3.68-1.34,1.9-4.32-.02-6.17-.12V0h519.42Z" fill="#ececec"/>
  </g>
</svg>