<?xml version="1.0" encoding="UTF-8"?>
<svg id="uuid-0400fd7c-e361-4f03-be20-601ffcab737c" 
     xmlns="http://www.w3.org/2000/svg" 
     viewBox="0 0 519.42 61.78" 
     preserveAspectRatio="none">
  <g id="uuid-f90a985b-d246-44a1-8bca-1e992f0ddb84">
    <path d="M519.42,0v57c-.6-.21-1.2-.37-1.8-.43-2.63-.24-5.29-2.29-7.8-1.25-2.06-.46-4.2-4.43-6.43-.87-1.78,1.26-3.24,2.94-4.7,3.23-1.26,2.68-2.25,2.12-3.66,1.7-1.6-.27-3.51.7-5.44.83-1.93-2.91-3.88.03-5.56-.38-3.46.79-6.88-3.79-10.33-1.79-3.45-.76-6.91-.47-10.43-1.19-2.49,1.01-4.96.58-7.43-.43-2.47-.56-4.94-2.41-7.45-.32-1.76-1.5-2.97-.59-4.61.6-1.74.72-3.47-1.19-5.23.13-2.39-.91-4.9,2.74-7.39.85-2.5-.01-4.99,1.46-7.35,1.3-2.74,1.3-5.41,3.48-8.09.87-2.68-.39-5.38.81-8.16.11-3.21.15-6.45.4-9.64-.72-3.2-.8-6.36,1.36-9.4-2.37-2.97,1.51-5.96-.26-8.98-1.49-3.02.14-6.06-.22-9.15-.45-1.53-.62-3.03-1.53-4.53-.27-1.51-1.01-3.01-.03-4.55-.07-1.74.78-3.45,1.09-5.17-.47-1.71.25-3.43,2.45-5.18-.37-2.77.71-5.53.19-8.29.04-2.77-.13-5.53-.04-8.29-.03-3.04-2.59-6.09-.56-9.15.2-3.05-1.53-6.11.54-9.16.62-3.06.97-6.09,2.28-9.1.95-1.59,2.29-3.12-.9-4.65.43-1.52-3.6-3.06,1.9-4.64.13-1.14-1.87-2.43-1.32-3.54.07-2.15,1.31-4.39-.98-6.65,1.43-2.26.56-4.54,1.04-6.79.85-2.31.14-4.58-1.93-6.86.76-2.27.19-4.54,2.44-6.84.79-2.78.77-5.53.21-8.28.43-2.75-.23-5.5.71-8.29.32-2.79-2.46-5.59,2.27-8.38-.02-2.79.89-5.58.25-8.37.02-1.52-.26-2.73-.56-3.89-.81-1.16-1.1-2.26-.91-3.54-2.06-1.26.17-2.54-3.18-3.84-2.43-1.29.7-2.6-.87-3.92-2.29-1.63-.39-3.33-1.4-5.06-1.83-1.73.28-3.5-.53-5.27-1.13-1.7.91-3.66-.79-5.64-1.42-1.97-.62-3.97,1.2-5.76-.45-1.3.42-2.35.74-3.66.84-1.84,1.45-1.98,1.13-3.13-1.92-.94.93-1.93-1.17-2.92-2.91-.98-.37-1.96-4.43-2.86-3-.92-1-1.74-3.75-2.64-3.55-.89-2.08-1.85-.72-3.04-3.12-1.24-2.72-2.79-1.02-4.37-1.14-1.58-2.04-3.2-1.43-4.55.55-1.93-1.55-3.8,1.18-5.68,1.25-1.88-.43-3.77.18-5.72,1.13-1.84-1.87-3.69,2.18-5.53.86-1.84-.26-3.68.83-5.5.98-2.69,1.72-5.39,1.81-8.09,1.64-2.69-2-5.37.78-8.01,1.89-2.66-1.52-5.31,3.55-7.89,2.84-2.59-.55-5.12.93-7.55,3.71-1.93-1.26-2.48,2.41-4.69,1.51-1.67-.98-3.31-1.4-4.96.44-1.65-1.39-3.3-2.48-5,.36-2.52-2.61-4.96,1.01-7.39.49-2.42.24-4.83-1.46-7.29,1.15-2.16-2.25-4.28,3.12-6.41.59-2.13-2.86-4.26,2.14-6.46.09-1.76.3-3.4.51-4.96-1.06-1.57-.1-3.08-.31-4.57-2.43-2.26-3.38-4.62.95-7.07-2.86-2.46-2.67-5.01-2.74-7.66-.65-2.28-.95-4.33,1.82-6.33,1.75-2,1.87-3.95,4.88-6.06,2.54-1.18,1.91-2.28-2.73-3.36,1.35-1.08-4.56-2.13,1.99-3.22,1.45-1.66-1.42-3.53,2.49-5.43.95-1.9.3-3.83-3.32-5.57.45-2.43,4.02-5.02-.63-7.58,1.4-2.56,4.85-5.09,3.59-7.38,2.15-1.38,4.42-2.79,4.57-4.23,2.28V0h519.42Z" fill="#ececec"/>
  </g>
</svg>