<?xml version="1.0" encoding="UTF-8"?>
<svg id="uuid-e37457c2-d72b-4553-b401-a7ef35992ceb" 
     xmlns="http://www.w3.org/2000/svg" 
     viewBox="0 0 519.42 65.03" 
     preserveAspectRatio="none">
  <g id="uuid-a3381fe0-8578-4712-be41-c2c534dd8f3d">
    <path d="M519.42,0v60.55c-1.54-.03-3.09-.35-4.62-1.17-3.19-.87-6.36-.93-9.51-1.65-3.15-.34-6.28-2.15-9.4-2.41-1.17-1.22-2.46-.65-3.71-1.14-1.24.17-2.44-.5-3.43-1.79-1.34-3.48-2.02-.86-3.33-3.55-.72-.14-1.69-2.71-2.68-2.5-1-1.5-2.02-1.44-2.84-2.17-1.49,1.21-4.1-.06-5.81-1.28-1.77,1.06-3.65-.45-5.54-.18-1.88.62-3.76-1.01-5.51.34-1.89-1.98-3.51,1.76-5.08,1.55-1.56.96-3.05-.89-4.68,2.53-1.82.9-3.72,1.62-5.66,2.46-1.95-.36-3.94,1.28-5.96,1.67-3.35.69-6.79,2.4-10.2,1.44-3.41.61-6.78-1.27-10.02,2.25-1.31,2.25-2.81.95-4.21,1.86-1.67.62-3.47,1.66-5.2.62-2.33-.44-4.54,2.39-6.69,1.81-2.15.8-4.25,2.16-6.38,2.66-1.81.13-3.88,2.14-6.01,2.08-2.13.45-4.31.67-6.34.63-1.48-1.04-1.93.78-3.16-.89-1.31-1.04-2.56-2.66-3.87-2.41-1.31.02-2.69-1.63-4.25-1.73-2.84-1.48-5.74-1.34-8.68-2.07-2.93-2.45-5.9-1.81-8.88-.91-2.98.82-5.96-.98-8.93-.49-1.72,0-3.25-.07-4.77-.9-1.51.68-3-.5-4.63-1.48-1.74-.76-3.65.25-5.57-1.31-1.91-2.57-3.85-.26-5.65-.9-3.09-1.72-6.32,1.11-9.56-1-3.23-2.1-6.47,1.75-9.59.28-2.46,2.22-4.8-.72-7.11,2.01-2.31,2.7-4.59,2.3-6.91,2.68-2.32,2.43-4.67.49-7.15,1.41-2.36,1-4.73-1.82-7.09-.02-2.37-1.17-4.73-3-7.1-.01-1.4,3.1-1.57.92-2.54-.65-1.18-1.13-2.21-.7-3.19-3.56-.97-.02-1.9-5.98-2.89-3.89-1.56,1.75-3.39-3.4-5.34-4.58-1.95-1.26-4.02-6.54-6.06-3.54-1.92-1.33-3.61-2.26-5.36-3.23-1.74-.74-3.54-2.19-5.65-2.62-1.82-2.55-3.67.47-5.45-.8-1.99,1.09-3.56-1.47-5.44-2.91-1.19-3.41-2.42-3.06-3.69-1.17-1.27.23-2.58-.75-3.94-.14-3.41-.65-6.18,1.67-8.66,3.57-2.49,4.31-4.69,2.99-6.98,6.37-.91-.62-1.97-1.91-3.08,1.94-1.12,3.35-2.3,1.69-3.47,1.27-2.22,3.47-4.52,1.36-6.85,1.5-2.12,3-4.31-3.6-6.47,1.6-2.16-.42-4.29-.94-6.31,2.13-1.33-.96-2.61.14-3.9,1.71-1.28,1.11-2.57.47-3.93,1.58-2.12-3.52-3.61-.09-5.48,2.67-2,2.24-3.75,1.06-5.48,4.31-1.73,1.36-3.43,2.2-5.35,4.47-1.1-.01-1.24-1.65-2.61.91-1.62-.98-2.86-.07-4.28,1.22h-20.51c-.38-.1-.76-.19-1.16-.28-1.4-1.65-2.88.66-4.36-.15-1.48-1.32-2.96.57-4.38-.14-1.99-.9-3.83-.36-5.7-2.19-1.86-.86-3.75-2.23-5.81-1.56-1.86-1.22-3.81-1.12-5.76.16-1.95.25-3.89-.96-5.73-.28-3.06-1.77-6.08-2.69-9.13-1.66-3.05-3.07-6.12-2.42-9.27-.55-1.35-.29-2.66,1.77-3.97.47-1.3-2.24-2.62.54-3.99.35-1.28-1.1-2.57,1.93-3.85-.01-1.29-1.35-2.57.46-3.85,0-1.23.62-2.63-.64-3.85.04-1.29-.02-2.53.32-3.77-.88-1.24-.06-2.49,2.67-3.82-.74-2.49-1.58-5.2-4.57-7.91-.3-2.71,1.81-5.41-.37-7.88.4-2.28-.42-4.12,1.36-6.49.71-1.26-.87-2.51,1.75-3.77-.01-1.26,1.36-2.51,1.31-3.77.01-3.23-2.73-6.43.04-9.63.04-3.19.67-6.38-5.3-9.57.83-1.13-1.14-2.26-.98-3.38-.4V0h519.42Z" fill="#ececec"/>
  </g>
</svg>